<svg width="32" height="32" viewBox="0 0 32 32" fill="none" xmlns="http://www.w3.org/2000/svg">
<path d="M22.9843 2H3.01574C2.45476 2 2 2.48784 2 3.08962V28.9104C2 29.5122 2.45476 30 3.01574 30H22.9843C23.5452 30 24 29.5122 24 28.9104V3.08962C24 2.48784 23.5452 2 22.9843 2Z" fill="#EEF0F4"/>
<path d="M16.7156 27.1601L13.2436 23.7361C12.8916 23.3841 12.8836 22.8161 13.2356 22.4641L26.1396 9.51205C26.4916 9.16005 27.0596 9.15205 27.4116 9.50405L30.8836 12.9281C31.2356 13.2801 31.2436 13.8481 30.8916 14.2001L17.9956 27.1521C17.6436 27.5041 17.0756 27.5121 16.7236 27.1601H16.7156Z" fill="#FFC300"/>
<path d="M11.084 29.208L13.092 22.608L17.852 27.288L11.268 29.44L11.084 29.208Z" fill="#FFE5CF"/>
<path d="M24.1476 11.5281L26.1396 9.50412C26.4916 9.15212 27.0596 9.14412 27.4116 9.49612L30.8836 12.9201C31.2356 13.2721 31.2436 13.8401 30.8916 14.1921L28.8996 16.2161L24.1396 11.5281H24.1476Z" fill="#FF8700"/>
<path fill-rule="evenodd" clip-rule="evenodd" d="M5 7.52002C5 7.10581 5.33961 6.77002 5.75853 6.77002H20.2415C20.6604 6.77002 21 7.10581 21 7.52002C21 7.93423 20.6604 8.27002 20.2415 8.27002H5.75853C5.33961 8.27002 5 7.93423 5 7.52002Z" fill="#A7B6C8"/>
<path fill-rule="evenodd" clip-rule="evenodd" d="M5 11.656C5 11.2418 5.33961 10.906 5.75853 10.906H20.2415C20.6604 10.906 21 11.2418 21 11.656C21 12.0702 20.6604 12.406 20.2415 12.406H5.75853C5.33961 12.406 5 12.0702 5 11.656Z" fill="#A7B6C8"/>
<path fill-rule="evenodd" clip-rule="evenodd" d="M5 15.792C5 15.3778 5.34362 15.042 5.7675 15.042H14.2325C14.6564 15.042 15 15.3778 15 15.792C15 16.2062 14.6564 16.542 14.2325 16.542H5.7675C5.34362 16.542 5 16.2062 5 15.792Z" fill="#A7B6C8"/>
<path d="M11.116 29.512L12.852 28.928L11.54 27.712L11.012 29.392C11.012 29.392 10.948 29.56 11.116 29.512Z" fill="#292C32"/>
</svg>
